<?xml version="1.0" encoding="UTF-8" standalone="no"?>
<svg width="1200" height="800" viewBox="0 0 1200 800" xmlns="http://www.w3.org/2000/svg">
  <!-- Background -->
  <rect width="1200" height="800" fill="#0f172a" />

  <!-- Left side - Background image and info -->
  <rect x="0" y="0" width="600" height="800" fill="#1e3a8a" />

  <!-- City skyline silhouette -->
  <path d="M0,800 L0,500 L50,500 L70,450 L100,450 L120,400 L150,400 L170,350 L200,350 L220,300 L250,300 L270,250 L300,250 L320,200 L350,200 L370,150 L400,150 L420,100 L450,100 L470,150 L500,150 L520,200 L550,200 L570,250 L600,250 L600,800 Z" fill="#0f2361" />

  <!-- Left side content -->
  <g transform="translate(100, 200)">
    <!-- City icon -->
    <rect x="0" y="0" width="60" height="60" rx="10" fill="#3b82f6" opacity="0.8" />
    <path d="M15,50 L15,25 L45,25 L45,50 M10,50 L50,50 M20,25 L20,15 L40,15 L40,25 M25,15 L25,5 L35,5 L35,15" stroke="white" stroke-width="2" fill="none" />

    <!-- Title -->
    <text x="0" y="100" font-family="Arial, sans-serif" font-size="40" font-weight="bold" fill="white">CargoScalePro City</text>

    <!-- Subtitle -->
    <text x="0" y="140" font-family="Arial, sans-serif" font-size="20" fill="#93c5fd">Manage commercial vehicle weights, permits, and compliance across your municipality.</text>

    <!-- Feature list -->
    <g transform="translate(0, 180)">
      <!-- Feature 1 -->
      <circle cx="10" cy="10" r="10" fill="#3b82f6" />
      <path d="M5,10 L8,13 L15,6" stroke="white" stroke-width="2" />
      <text x="30" y="15" font-family="Arial, sans-serif" font-size="16" fill="#e0f2fe">Issue and manage overweight/oversize permits</text>

      <!-- Feature 2 -->
      <circle cx="10" cy="50" r="10" fill="#3b82f6" />
      <path d="M5,50 L8,53 L15,46" stroke="white" stroke-width="2" />
      <text x="30" y="55" font-family="Arial, sans-serif" font-size="16" fill="#e0f2fe">Track compliance and issue violations</text>

      <!-- Feature 3 -->
      <circle cx="10" cy="90" r="10" fill="#3b82f6" />
      <path d="M5,90 L8,93 L15,86" stroke="white" stroke-width="2" />
      <text x="30" y="95" font-family="Arial, sans-serif" font-size="16" fill="#e0f2fe">Monitor revenue and generate reports</text>
    </g>
  </g>

  <!-- Right side - Login form -->
  <g transform="translate(700, 150)">
    <!-- Login card -->
    <rect x="0" y="0" width="400" height="500" rx="10" fill="#1f2937" stroke="#3b82f6" stroke-width="2" />

    <!-- Card header -->
    <text x="200" y="50" font-family="Arial, sans-serif" font-size="24" font-weight="bold" fill="#3b82f6" text-anchor="middle">CargoScalePro City</text>
    <text x="200" y="80" font-family="Arial, sans-serif" font-size="16" fill="#9ca3af" text-anchor="middle">Please sign in to your municipal account</text>

    <!-- Form fields -->
    <g transform="translate(50, 120)">
      <!-- Email field -->
      <text x="0" y="20" font-family="Arial, sans-serif" font-size="14" fill="#d1d5db">Email</text>
      <rect x="0" y="30" width="300" height="50" rx="5" fill="#374151" stroke="#4b5563" stroke-width="1" />
      <text x="15" y="60" font-family="Arial, sans-serif" font-size="16" fill="#9ca3af">cityadmin@example.gov</text>

      <!-- Password field -->
      <text x="0" y="110" font-family="Arial, sans-serif" font-size="14" fill="#d1d5db">Password</text>
      <rect x="0" y="120" width="300" height="50" rx="5" fill="#374151" stroke="#4b5563" stroke-width="1" />
      <text x="15" y="150" font-family="Arial, sans-serif" font-size="16" fill="#9ca3af">••••••••••</text>

      <!-- Remember me checkbox -->
      <rect x="0" y="190" width="20" height="20" rx="3" fill="#374151" stroke="#4b5563" stroke-width="1" />
      <text x="30" y="205" font-family="Arial, sans-serif" font-size="14" fill="#d1d5db">Remember me</text>

      <!-- Forgot password link -->
      <text x="300" y="205" font-family="Arial, sans-serif" font-size="14" fill="#3b82f6" text-anchor="end">Forgot password?</text>

      <!-- Login button -->
      <rect x="0" y="230" width="300" height="50" rx="5" fill="#2563eb" />
      <text x="150" y="260" font-family="Arial, sans-serif" font-size="16" font-weight="bold" fill="white" text-anchor="middle">Login</text>

      <!-- Divider -->
      <line x1="0" y1="310" x2="300" y2="310" stroke="#4b5563" stroke-width="1" />
      <text x="150" y="325" font-family="Arial, sans-serif" font-size="14" fill="#9ca3af" text-anchor="middle">OR</text>

      <!-- Contact admin -->
      <text x="150" y="360" font-family="Arial, sans-serif" font-size="14" fill="#9ca3af" text-anchor="middle">Don't have an account?</text>
      <text x="150" y="385" font-family="Arial, sans-serif" font-size="14" fill="#3b82f6" text-anchor="middle">Contact your administrator</text>
    </g>
  </g>
</svg>
