<?xml version="1.0" encoding="UTF-8" standalone="no"?>
<svg width="1200" height="800" viewBox="0 0 1200 800" xmlns="http://www.w3.org/2000/svg">
  <!-- Background -->
  <rect width="1200" height="800" fill="#0f172a" />

  <!-- Left side - Login form -->
  <g transform="translate(100, 100)">
    <!-- Login card -->
    <rect x="0" y="0" width="500" height="600" rx="10" fill="#1e293b" />

    <!-- Card header -->
    <g transform="translate(50, 50)">
      <!-- Logo -->
      <rect x="0" y="0" width="60" height="60" rx="10" fill="#4f46e5" />
      <path d="M15,40 L15,20 L45,20 L45,40 M10,40 L50,40 M20,20 L20,10 L40,10 L40,20" stroke="white" stroke-width="2" fill="none" />
      <path d="M15,50 L15,40 L45,40 L45,50 L15,50 Z M20,40 L20,30 L40,30 L40,40" stroke="white" stroke-width="2" fill="none" />

      <!-- Title -->
      <text x="80" y="35" font-family="Arial, sans-serif" font-size="24" font-weight="bold" fill="white">CargoScalePro</text>
      <text x="80" y="60" font-family="Arial, sans-serif" font-size="16" fill="#94a3b8">Professional Weight Management</text>
    </g>

    <!-- Form -->
    <g transform="translate(50, 150)">
      <text x="0" y="0" font-family="Arial, sans-serif" font-size="24" font-weight="bold" fill="white">Welcome back</text>
      <text x="0" y="30" font-family="Arial, sans-serif" font-size="16" fill="#94a3b8">Sign in to your account</text>

      <!-- Email field -->
      <text x="0" y="70" font-family="Arial, sans-serif" font-size="14" fill="#e2e8f0">Email or Username</text>
      <rect x="0" y="80" width="400" height="50" rx="5" fill="#334155" />
      <text x="15" y="110" font-family="Arial, sans-serif" font-size="16" fill="#94a3b8">truckadmin@example.com</text>

      <!-- Password field -->
      <text x="0" y="160" font-family="Arial, sans-serif" font-size="14" fill="#e2e8f0">Password</text>
      <rect x="0" y="170" width="400" height="50" rx="5" fill="#334155" />
      <text x="15" y="200" font-family="Arial, sans-serif" font-size="16" fill="#94a3b8">••••••••••</text>

      <!-- Remember me checkbox -->
      <rect x="0" y="240" width="20" height="20" rx="3" fill="#334155" />
      <text x="30" y="255" font-family="Arial, sans-serif" font-size="14" fill="#e2e8f0">Remember me</text>

      <!-- Forgot password link -->
      <text x="400" y="255" font-family="Arial, sans-serif" font-size="14" fill="#4f46e5" text-anchor="end">Forgot password?</text>

      <!-- Login button -->
      <rect x="0" y="280" width="400" height="50" rx="5" fill="#4f46e5" />
      <text x="200" y="310" font-family="Arial, sans-serif" font-size="16" font-weight="bold" fill="white" text-anchor="middle">Login</text>

      <!-- Divider -->
      <line x1="0" y1="360" x2="400" y2="360" stroke="#475569" stroke-width="1" />

      <!-- Register link -->
      <text x="0" y="390" font-family="Arial, sans-serif" font-size="14" fill="#e2e8f0">New to CargoScalePro?</text>
      <text x="180" y="390" font-family="Arial, sans-serif" font-size="14" fill="#4f46e5">Create an account</text>
    </g>
  </g>

  <!-- Right side - Image and info -->
  <g transform="translate(650, 100)">
    <!-- Background image placeholder -->
    <rect x="0" y="0" width="500" height="600" rx="10" fill="#312e81" />

    <!-- Truck illustration -->
    <g transform="translate(100, 100)">
      <!-- Truck cab -->
      <rect x="100" y="150" width="150" height="100" rx="10" fill="#4f46e5" />
      <rect x="0" y="200" width="100" height="50" rx="10" fill="#4f46e5" />

      <!-- Truck trailer -->
      <rect x="250" y="170" width="200" height="80" fill="#6366f1" />

      <!-- Wheels -->
      <circle cx="50" cy="250" r="25" fill="#1e293b" stroke="#94a3b8" stroke-width="5" />
      <circle cx="150" cy="250" r="25" fill="#1e293b" stroke="#94a3b8" stroke-width="5" />
      <circle cx="300" cy="250" r="25" fill="#1e293b" stroke="#94a3b8" stroke-width="5" />
      <circle cx="400" cy="250" r="25" fill="#1e293b" stroke="#94a3b8" stroke-width="5" />

      <!-- Windows -->
      <rect x="120" y="170" width="80" height="40" rx="5" fill="#a5b4fc" />
    </g>

    <!-- Text content -->
    <g transform="translate(50, 350)">
      <text x="0" y="0" font-family="Arial, sans-serif" font-size="24" font-weight="bold" fill="white">Optimize Your Fleet Operations</text>
      <text x="0" y="40" font-family="Arial, sans-serif" font-size="16" fill="#c7d2fe">Manage weights, compliance, and routing all in one place</text>

      <!-- Feature list -->
      <g transform="translate(0, 70)">
        <!-- Feature 1 -->
        <circle cx="10" cy="10" r="10" fill="#4f46e5" />
        <path d="M5,10 L8,13 L15,6" stroke="white" stroke-width="2" />
        <text x="30" y="15" font-family="Arial, sans-serif" font-size="16" fill="#e0e7ff">Real-time weight monitoring</text>

        <!-- Feature 2 -->
        <circle cx="10" cy="50" r="10" fill="#4f46e5" />
        <path d="M5,50 L8,53 L15,46" stroke="white" stroke-width="2" />
        <text x="30" y="55" font-family="Arial, sans-serif" font-size="16" fill="#e0e7ff">Automated compliance checks</text>

        <!-- Feature 3 -->
        <circle cx="10" cy="90" r="10" fill="#4f46e5" />
        <path d="M5,90 L8,93 L15,86" stroke="white" stroke-width="2" />
        <text x="30" y="95" font-family="Arial, sans-serif" font-size="16" fill="#e0e7ff">Route optimization for weight limits</text>

        <!-- Feature 4 -->
        <circle cx="10" cy="130" r="10" fill="#4f46e5" />
        <path d="M5,130 L8,133 L15,126" stroke="white" stroke-width="2" />
        <text x="30" y="135" font-family="Arial, sans-serif" font-size="16" fill="#e0e7ff">Comprehensive reporting tools</text>
      </g>
    </g>
  </g>
</svg>
