<?xml version="1.0" encoding="UTF-8" standalone="no"?>
<svg width="512" height="512" viewBox="0 0 512 512" xmlns="http://www.w3.org/2000/svg">
  <defs>
    <linearGradient id="grad" x1="0%" y1="0%" x2="100%" y2="100%">
      <stop offset="0%" style="stop-color:#0284c7;stop-opacity:1" />
      <stop offset="100%" style="stop-color:#0ea5e9;stop-opacity:1" />
    </linearGradient>
  </defs>
  
  <!-- Background -->
  <rect width="512" height="512" fill="url(#grad)" rx="64" ry="64"/>
  
  <!-- Truck Icon -->
  <g transform="translate(96, 156) scale(1.2)">
    <!-- Truck Cab -->
    <rect x="0" y="0" width="80" height="60" fill="#1e40af" rx="10" ry="10" />
    <rect x="70" y="10" width="10" height="40" fill="#1e3a8a" />
    
    <!-- Windshield -->
    <rect x="10" y="10" width="40" height="30" fill="#a5f3fc" rx="5" ry="5" />
    
    <!-- Wheels -->
    <circle cx="20" cy="70" r="15" fill="#000" />
    <circle cx="20" cy="70" r="8" fill="#333" />
    <circle cx="60" cy="70" r="15" fill="#000" />
    <circle cx="60" cy="70" r="8" fill="#333" />
    
    <!-- Trailer -->
    <rect x="80" y="-20" width="140" height="80" fill="#64748b" />
    
    <!-- Trailer Wheels -->
    <circle cx="100" cy="70" r="15" fill="#000" />
    <circle cx="100" cy="70" r="8" fill="#333" />
    <circle cx="130" cy="70" r="15" fill="#000" />
    <circle cx="130" cy="70" r="8" fill="#333" />
    <circle cx="180" cy="70" r="15" fill="#000" />
    <circle cx="180" cy="70" r="8" fill="#333" />
    <circle cx="210" cy="70" r="15" fill="#000" />
    <circle cx="210" cy="70" r="8" fill="#333" />
    
    <!-- Scale Platform -->
    <rect x="100" y="60" width="110" height="10" fill="#dc2626" />
  </g>
  
  <!-- Weight Scale Icon -->
  <g transform="translate(256, 320)">
    <rect x="-40" y="0" width="80" height="8" fill="#fff" rx="2" ry="2" />
    <rect x="-5" y="-40" width="10" height="40" fill="#fff" />
    <rect x="-20" y="-50" width="40" height="10" fill="#fff" rx="2" ry="2" />
    <circle cx="0" cy="-60" r="15" fill="#fff" />
    <text x="-8" y="-55" font-family="Arial, sans-serif" font-size="16" fill="#0284c7" font-weight="bold">lb</text>
  </g>
</svg>
