<?xml version="1.0" encoding="UTF-8"?>
<svg width="512" height="512" viewBox="0 0 512 512" fill="none" xmlns="http://www.w3.org/2000/svg">
  <!-- Background -->
  <rect width="512" height="512" rx="128" fill="#0284c7"/>
  
  <!-- Truck Body -->
  <rect x="80" y="240" width="280" height="120" rx="20" fill="white"/>
  
  <!-- Truck Cabin -->
  <rect x="360" y="260" width="80" height="100" rx="10" fill="white"/>
  
  <!-- Truck Windshield -->
  <rect x="380" y="280" width="40" height="40" rx="5" fill="#e0f2fe"/>
  
  <!-- Truck Wheels -->
  <circle cx="140" cy="380" r="30" fill="#1e293b"/>
  <circle cx="140" cy="380" r="15" fill="#94a3b8"/>
  <circle cx="320" cy="380" r="30" fill="#1e293b"/>
  <circle cx="320" cy="380" r="15" fill="#94a3b8"/>
  <circle cx="400" cy="380" r="30" fill="#1e293b"/>
  <circle cx="400" cy="380" r="15" fill="#94a3b8"/>
  
  <!-- Truck Headlight -->
  <rect x="80" y="260" width="20" height="20" rx="5" fill="#fef08a"/>
  
  <!-- Truck Grill -->
  <rect x="360" y="340" width="80" height="10" fill="#94a3b8"/>
  
  <!-- Truck Door -->
  <rect x="370" y="280" width="5" height="60" fill="#94a3b8"/>
  
  <!-- Truck Cargo Lines -->
  <rect x="100" y="260" width="240" height="5" fill="#94a3b8"/>
  <rect x="100" y="290" width="240" height="5" fill="#94a3b8"/>
  <rect x="100" y="320" width="240" height="5" fill="#94a3b8"/>
</svg>
