<?xml version="1.0" encoding="UTF-8"?>
<svg width="512" height="512" viewBox="0 0 512 512" fill="none" xmlns="http://www.w3.org/2000/svg">
  <!-- Background -->
  <defs>
    <linearGradient id="bg-gradient" x1="0%" y1="0%" x2="100%" y2="100%">
      <stop offset="0%" style="stop-color:#0284c7;stop-opacity:1" />
      <stop offset="100%" style="stop-color:#0ea5e9;stop-opacity:1" />
    </linearGradient>
  </defs>

  <rect width="512" height="512" rx="128" fill="url(#bg-gradient)"/>

  <!-- Truck Body -->
  <rect x="80" y="240" width="280" height="120" rx="20" fill="white"/>

  <!-- Truck Cabin -->
  <rect x="360" y="260" width="80" height="100" rx="10" fill="white"/>

  <!-- Truck Windshield -->
  <rect x="380" y="280" width="40" height="40" rx="5" fill="#e0f2fe"/>

  <!-- Truck Wheels -->
  <circle cx="140" cy="380" r="30" fill="#1e293b"/>
  <circle cx="140" cy="380" r="15" fill="#94a3b8"/>
  <circle cx="320" cy="380" r="30" fill="#1e293b"/>
  <circle cx="320" cy="380" r="15" fill="#94a3b8"/>
  <circle cx="400" cy="380" r="30" fill="#1e293b"/>
  <circle cx="400" cy="380" r="15" fill="#94a3b8"/>

  <!-- Truck Headlight -->
  <rect x="80" y="260" width="20" height="20" rx="5" fill="#fef08a"/>

  <!-- Truck Grill -->
  <rect x="360" y="340" width="80" height="10" fill="#94a3b8"/>

  <!-- Truck Door -->
  <rect x="370" y="280" width="5" height="60" fill="#94a3b8"/>

  <!-- Truck Cargo Lines -->
  <rect x="100" y="260" width="240" height="5" fill="#94a3b8"/>
  <rect x="100" y="290" width="240" height="5" fill="#94a3b8"/>
  <rect x="100" y="320" width="240" height="5" fill="#94a3b8"/>

  <!-- Weight Scale Icon -->
  <g transform="translate(180, 180) scale(0.8)">
    <rect x="0" y="0" width="100" height="10" fill="#fff" rx="2" ry="2" />
    <rect x="45" y="-40" width="10" height="40" fill="#fff" />
    <rect x="30" y="-50" width="40" height="10" fill="#fff" rx="2" ry="2" />
    <circle cx="50" cy="-60" r="15" fill="#fff" />
    <text x="42" y="-55" font-family="Arial, sans-serif" font-size="16" fill="#0284c7" font-weight="bold">lb</text>
  </g>
</svg>
